<?xml version="1.0" encoding="iso-8859-1"?>
<!-- Generator: Adobe Illustrator 19.0.0, SVG Export Plug-In . SVG Version: 6.00 Build 0)  -->
<svg version="1.1" id="Layer_1" xmlns="http://www.w3.org/2000/svg" xmlns:xlink="http://www.w3.org/1999/xlink" x="0px" y="0px"
	 viewBox="0 0 512 512" style="enable-background:new 0 0 512 512;" xml:space="preserve">
<path style="fill:#FCBB29;" d="M507.816,0.316c2.476-1.238,5.105,1.391,3.867,3.855l-6.739,13.364
	c-12.228,24.264-26.255,47.366-41.954,69.141c-15.648,21.686-32.956,42.056-51.846,60.959l-38.23-6.139l-8.549-40.64
	c37.87-37.832,81.649-69.383,130.1-93.8L507.816,0.316z"/>
<path style="fill:#D39A29;" d="M462.99,86.675c15.699-21.775,29.727-44.877,41.954-69.141l6.739-13.364
	c1.238-2.463-1.391-5.093-3.867-3.855l-13.351,6.739c-2.747,1.384-5.473,2.798-8.189,4.229
	c-11.204,21.282-23.803,41.642-37.726,60.952c-15.648,21.686-32.956,42.056-51.846,60.959l14.441,14.441
	C430.034,128.732,447.342,108.361,462.99,86.675z"/>
<polygon style="fill:#CCCCCC;" points="360.319,207.56 336.438,261.295 265.513,245.286 250.704,175.562 304.439,151.668 
	305.026,152.868 345.838,166.766 359.119,206.973 "/>
<polygon style="fill:#FCBB29;" points="341.069,188.923 341.078,188.927 305.026,152.868 304.439,151.668 304.013,151.858 "/>
<g>
	<polygon style="fill:#B3B3B3;" points="360.319,207.56 359.119,206.973 342.081,189.931 318.388,243.245 336.438,261.295 	"/>
	<path style="fill:#B3B3B3;" d="M415.7,152.191l-55.382,55.369l-1.2-0.587l-54.093-54.105l-0.587-1.2l55.369-55.369l4.557,4.557
		c-0.064,0.064-0.14,0.14-0.204,0.204l46.779,46.779c0.064-0.064,0.14-0.14,0.204-0.204L415.7,152.191z"/>
</g>
<g>
	<path style="fill:#999999;" d="M415.7,152.191l-55.382,55.369l-1.2-0.587l-16.209-16.221l-0.587-1.2l55.369-55.369l4.557,4.557
		c-0.064,0.064-0.14,0.14-0.204,0.204l8.895,8.895c0.064-0.064,0.14-0.14,0.204-0.204L415.7,152.191z"/>
	<polygon style="fill:#999999;" points="133.197,448.71 87.737,494.169 17.818,424.262 61.477,380.601 	"/>
</g>
<polygon style="fill:#808080;" points="109.449,472.458 87.737,494.169 64.504,470.947 86.215,449.236 "/>
<polygon style="fill:#B3B3B3;" points="336.438,261.295 117.349,480.371 109.449,472.458 39.529,402.551 31.628,394.638 
	250.704,175.562 "/>
<polygon style="fill:#999999;" points="336.438,261.295 117.349,480.371 109.449,472.458 103.155,466.177 95.254,458.263 
	314.33,239.187 "/>
<path style="fill:#B3B3B3;" d="M95.294,512c-2.449,0-4.9-0.934-6.769-2.804L2.804,423.475c-3.738-3.738-3.738-9.8,0-13.537
	c3.738-3.738,9.8-3.738,13.537,0l85.721,85.721c3.738,3.738,3.738,9.8,0,13.537C100.194,511.064,97.743,512,95.294,512z"/>
<path style="fill:#999999;" d="M80.401,473.997c3.738,3.738,3.738,9.8,0,13.538c-1.869,1.869-4.319,2.804-6.769,2.804
	c-2.449,0-4.899-0.933-6.767-2.803l21.659,21.659c1.869,1.87,4.319,2.804,6.769,2.804s4.9-0.934,6.769-2.804
	c3.738-3.738,3.738-9.8,0-13.538L80.401,473.997z"/>
<g>
</g>
<g>
</g>
<g>
</g>
<g>
</g>
<g>
</g>
<g>
</g>
<g>
</g>
<g>
</g>
<g>
</g>
<g>
</g>
<g>
</g>
<g>
</g>
<g>
</g>
<g>
</g>
<g>
</g>
</svg>
