<?xml version="1.0" encoding="iso-8859-1"?>
<!-- Generator: Adobe Illustrator 19.0.0, SVG Export Plug-In . SVG Version: 6.00 Build 0)  -->
<svg version="1.1" id="Layer_1" xmlns="http://www.w3.org/2000/svg" xmlns:xlink="http://www.w3.org/1999/xlink" x="0px" y="0px"
	 viewBox="0 0 512 512" style="enable-background:new 0 0 512 512;" xml:space="preserve">
<path style="fill:#FCBB29;" d="M494.456,13.753c2.431-1.215,5.012,1.366,3.796,3.784l-6.616,13.118
	c-12.003,23.819-25.773,46.497-41.185,67.873c-15.361,21.288-32.351,41.285-50.895,59.841l-45.921-45.921
	c37.175-37.138,80.152-68.111,127.714-92.08L494.456,13.753z"/>
<path style="fill:#D39A29;" d="M450.452,98.528c15.411-21.375,29.181-44.054,41.185-67.873l6.616-13.118
	c1.215-2.418-1.366-4.999-3.796-3.784l-13.106,6.616c-2.696,1.358-5.373,2.746-8.039,4.151
	c-10.998,20.892-23.366,40.878-37.034,59.834c-15.361,21.288-32.351,41.285-50.895,59.841l14.176,14.176
	C418.101,139.813,435.091,119.816,450.452,98.528z"/>
<polygon style="fill:#CCCCCC;" points="349.664,217.196 326.221,269.946 242.06,185.784 294.809,162.329 295.386,163.507 
	348.486,216.62 "/>
<polygon style="fill:#FCBB29;" points="330.767,198.9 330.774,198.904 295.386,163.507 294.809,162.329 294.39,162.516 "/>
<g>
	<polygon style="fill:#B3B3B3;" points="349.664,217.196 348.486,216.62 331.76,199.89 308.502,252.226 326.221,269.946 	"/>
	<path style="fill:#B3B3B3;" d="M404.03,162.843l-54.366,54.353l-1.178-0.576l-53.1-53.113l-0.576-1.178l54.353-54.353l4.473,4.473
		c-0.063,0.063-0.138,0.138-0.2,0.2l45.921,45.921c0.063-0.063,0.138-0.138,0.2-0.2L404.03,162.843z"/>
</g>
<g>
	<path style="fill:#999999;" d="M404.03,162.843l-54.366,54.353l-1.178-0.576l-15.911-15.924l-0.576-1.178l54.353-54.353
		l4.473,4.473c-0.063,0.063-0.138,0.138-0.2,0.2l8.732,8.732c0.063-0.063,0.138-0.138,0.201-0.2L404.03,162.843z"/>
	
		<rect x="43.35" y="405.052" transform="matrix(-0.7071 0.7071 -0.7071 -0.7071 420.462 732.9962)" style="fill:#999999;" width="30.146" height="97.053"/>
</g>
<polygon style="fill:#808080;" points="103.395,477.235 82.082,498.548 59.273,475.753 80.586,454.44 "/>
<polygon style="fill:#B3B3B3;" points="326.221,269.946 111.151,485.003 103.395,477.235 34.758,408.61 27.002,400.842 
	242.06,185.784 "/>
<polygon style="fill:#999999;" points="326.221,269.946 111.151,485.003 103.395,477.235 97.217,471.07 89.461,463.302 
	304.519,248.244 "/>
<path style="fill:#333333;" d="M508.416,3.582c-3.736-3.735-9.418-4.647-14.135-2.27l-13.115,6.607
	C435.394,30.98,393.802,60.43,357.4,95.519c-3.517-1.75-7.9-1.168-10.831,1.763l-53.12,53.12l-51.157,22.746
	c-1.052,0.469-2.011,1.126-2.827,1.942l-215.06,215.06c-3.67,3.67-3.67,9.62,0,13.289l1.118,1.118l-8.363,8.363l-1.118-1.118
	c-3.67-3.67-9.62-3.67-13.289,0c-3.67,3.67-3.67,9.62,0,13.289l84.155,84.155c1.834,1.834,4.24,2.753,6.644,2.753
	c2.404,0,4.81-0.917,6.644-2.753c3.67-3.67,3.67-9.62,0-13.289l-1.119-1.119l8.364-8.363l1.119,1.119
	c1.762,1.763,4.152,2.753,6.644,2.753c2.492,0,4.883-0.99,6.644-2.753l215.06-215.061c0.816-0.814,1.473-1.774,1.942-2.827
	l22.746-51.157l53.12-53.12c1.763-1.762,2.753-4.152,2.753-6.644c0-1.467-0.351-2.894-0.992-4.184
	c35.09-36.403,64.541-77.997,87.603-123.77l6.608-13.116C513.066,12.998,512.153,7.317,508.416,3.582z M86.129,481.209L30.79,425.87
	l8.023-8.023l55.339,55.339L86.129,481.209z M115.204,467.66l-70.865-70.865l201.771-201.771l70.865,70.865L115.204,467.66z
	 M327.236,249.571l-64.807-64.808l33.936-15.089l45.961,45.96L327.236,249.571z M353.419,200.15L311.85,158.58l41.165-41.165
	l41.569,41.569L353.419,200.15z M403.534,140.956l-32.49-32.49c33.634-32.308,71.863-59.63,113.827-81.337
	C463.163,69.091,435.842,107.32,403.534,140.956z"/>
<g>
</g>
<g>
</g>
<g>
</g>
<g>
</g>
<g>
</g>
<g>
</g>
<g>
</g>
<g>
</g>
<g>
</g>
<g>
</g>
<g>
</g>
<g>
</g>
<g>
</g>
<g>
</g>
<g>
</g>
</svg>
